<?xml version="1.0" encoding="UTF-8"?>
<svg xmlns="http://www.w3.org/2000/svg" width="237" height="50" viewBox="0 0 237 50" fill="none">
  <g clip-path="url(#clip0_6007_2669)">
    <path d="M20.9525 43.8022C20.6465 43.0125 20.3325 42.2228 20.0373 41.4331C19.8748 40.9959 19.753 40.5436 19.5956 40.1042C19.378 39.5026 19.5158 38.8177 20.1533 38.4667C20.6269 38.2061 21.0592 37.8715 21.5255 37.5958C21.6939 37.5069 21.8808 37.4578 22.0716 37.4523C22.469 37.4286 22.8694 37.4365 23.2675 37.4408C23.4807 37.4408 23.5758 37.351 23.5736 37.14C23.5699 36.7451 23.5736 36.3503 23.5736 35.9554C23.5736 34.5196 23.5736 33.0837 23.5736 31.6479C23.5736 31.1877 23.538 31.1583 23.0804 31.1569C22.754 31.1569 22.4277 31.1569 22.1013 31.1569C21.6974 31.1533 21.6161 31.0599 21.7684 30.6823C22.0585 29.9608 22.3726 29.2465 22.6902 28.5379C22.8512 28.1789 23.0732 27.8408 23.211 27.4725C23.3756 27.0346 23.6809 26.8716 24.1175 26.7259C25.0393 26.4179 25.9255 26.0036 26.8241 25.6275C26.9204 25.5776 27.0103 25.5164 27.0917 25.4451C27.1368 25.394 27.1776 25.3392 27.2136 25.2814C27.0127 25.341 26.8988 25.3834 26.7784 25.4078C25.8117 25.6095 24.8464 25.812 23.8775 26.0029C23.6222 26.0539 23.4423 25.9311 23.2508 25.7438C22.7927 25.2862 22.3035 24.8602 21.7866 24.4687C20.6356 23.6151 19.7356 22.5856 19.2736 21.2166C19.245 21.1416 19.1979 21.075 19.1365 21.0227C19.2184 21.9201 19.5743 22.7715 20.1569 23.4637C20.7176 24.1313 21.3797 24.7193 21.9889 25.3518C22.2615 25.6307 22.514 25.9281 22.7446 26.242C21.3906 25.1903 20.0554 24.122 19.1438 22.5009C18.6934 23.511 17.7607 23.776 17.071 24.3359C16.8206 24.5393 16.6154 24.7918 16.4684 25.0775C16.236 25.5646 15.8495 25.9634 15.3674 26.2133C14.9475 26.4373 14.5697 26.7431 14.1599 27.0245C13.7088 26.522 13.2592 25.9886 12.5375 25.8514L12.465 25.9297L14.0112 27.5773C13.6435 27.9363 13.3056 28.2234 13.0256 28.558C12.6477 28.9998 12.4257 29.5515 12.3932 30.1295C12.3682 30.2908 12.2824 30.4367 12.1532 30.538C11.6455 30.9257 10.533 30.7993 10.1014 30.3277C9.91505 30.1245 9.88387 29.3226 10.0717 29.0684C10.2378 28.8531 10.4089 28.6147 10.6309 28.4632C11.4896 27.876 11.9051 27.0576 12.0146 26.0553C12.0357 25.8579 12.0872 25.6634 12.1191 25.4846C12.1916 25.4724 12.2184 25.458 12.2366 25.4652C12.7101 25.6684 12.7167 25.6727 12.9981 25.2297C13.5563 24.3415 14.3396 23.6133 15.2703 23.1176C15.725 22.8743 15.7968 22.4306 15.944 22.0874C16.0782 22.0386 16.2131 22.0321 16.245 21.9718C16.5953 21.3135 17.0616 20.7665 17.768 20.4118C17.4554 20.3199 17.4554 20.3199 16.5909 20.9531C17.0087 20.3788 17.5461 20.1634 18.0987 19.9602C18.2358 19.91 18.4127 19.7391 18.4214 19.6135C18.486 18.6996 19.1119 18.2731 19.7399 17.9486C20.2889 18.3708 20.7756 18.7599 21.2782 19.1274C21.8707 19.5582 22.1847 19.4929 22.5684 18.8719C22.6284 18.768 22.682 18.6606 22.7287 18.5502C22.8251 18.3349 22.8498 18.1195 23.1217 17.9709C23.3132 17.8668 23.4002 17.5258 23.4749 17.2738C23.5297 17.048 23.5199 16.8116 23.4467 16.591C23.4169 16.7655 23.3872 16.9392 23.3516 17.1438L23.0514 16.978C23.0362 17.2472 23.0238 17.4683 23.0122 17.6895L22.9122 17.6392C22.8128 17.7713 22.6946 17.8926 22.6177 18.0377C22.4727 18.3248 22.3617 18.6256 22.2137 18.9092C22.097 19.1339 21.883 19.1698 21.6952 19.0212C21.4884 18.8478 21.2985 18.6555 21.1281 18.4469C21.0555 18.3629 21.028 18.2394 20.9598 18.0879L20.7582 18.3428C20.1874 18.154 20.323 17.5085 19.9524 17.169L20.1562 17.0563C19.7566 16.5056 19.3251 15.9794 18.9726 15.4051C18.61 14.8128 18.4497 14.1652 18.8776 13.5026C18.1096 13.522 17.9297 14.5522 18.4526 15.7525C17.7339 15.1724 17.8137 13.7948 18.5926 13.3008C18.7051 13.2326 18.8103 13.1532 18.9066 13.0639C19.7 12.3029 20.9098 12.3166 21.59 13.1795C21.9418 13.6246 22.2979 13.7897 22.8382 13.6347L22.791 13.7596C22.9745 13.8429 23.1573 13.9922 23.3408 13.9929C23.665 13.9929 23.7534 14.1315 23.7121 14.405C23.6853 14.5787 23.6171 14.746 23.5939 14.919C23.5772 15.0425 23.5699 15.1911 23.6272 15.2887C23.657 15.3404 23.8347 15.3117 23.9456 15.311C23.992 15.311 24.0377 15.2809 24.0856 15.2765C24.9022 15.1997 25.6333 14.9592 26.1235 14.2449L25.774 14.9111L25.8733 14.9829C25.9357 14.9169 25.9952 14.8479 26.0612 14.7848C26.4064 14.456 26.7182 14.0762 27.1106 13.817C27.4101 13.6189 27.5755 13.229 27.9968 13.1953C28.0396 13.1953 28.0998 13.0223 28.0998 12.9304C28.1043 12.6444 28.0883 12.3584 28.052 12.0746C28.0157 11.8219 28.1194 11.7415 28.3486 11.697C29.0263 11.5771 29.6316 11.2039 30.0391 10.6546C30.0761 10.6051 30.0892 10.5376 30.0602 10.4148C29.6975 10.6101 29.3458 10.8269 28.9723 10.9956C28.6097 11.1586 28.2246 11.2727 27.8119 11.4206C27.7256 10.2719 28.052 9.23743 27.9903 8.19358L27.8532 8.1663C27.7996 8.24765 27.7551 8.33455 27.7205 8.42547C27.5029 9.21015 27.297 9.99627 27.0867 10.7824C27.0323 10.9856 27.0221 11.2584 26.7052 11.1823C26.4151 11.1105 26.2323 10.9037 26.3005 10.5957C26.4049 10.1298 26.5427 9.67034 26.6762 9.21087C26.8553 8.59059 27.0511 7.97534 27.2223 7.3529C27.2578 7.22368 27.2128 7.07363 27.2128 6.93364C27.2128 6.17624 27.2687 5.43248 27.735 4.77989C27.7742 4.72533 27.706 4.59539 27.6872 4.49918C28.0541 4.37714 28.3616 3.92485 28.329 3.53143C28.3261 3.49691 28.316 3.46335 28.2994 3.43285C28.2828 3.40234 28.26 3.37554 28.2325 3.35411C27.7379 3.07699 27.698 2.53281 27.4689 2.10063C27.4499 2.06939 27.4432 2.03234 27.45 1.99653C27.6966 1.3504 27.9417 0.704279 28.2072 0.0631794C28.2289 0.0114894 28.4001 -0.0143556 28.4915 0.00287443C29.0129 0.101947 29.5351 0.203173 30.0478 0.339577C30.1602 0.369012 30.2922 0.533415 30.314 0.654025C30.4119 1.18313 30.4881 1.71654 30.5374 2.25211C30.5464 2.45174 30.5105 2.65087 30.4322 2.83505C30.3379 3.07915 30.1747 3.29667 30.0754 3.53933C29.9448 3.85737 29.7454 3.91624 29.456 3.76332C29.1434 3.59892 28.9701 3.68076 28.8787 4.02967C28.7874 4.37857 28.7228 4.65354 28.9948 4.98665C29.3356 5.4052 29.3763 5.95655 29.385 6.48925C29.385 6.63283 29.3813 6.77642 29.3922 6.92C29.4306 7.43403 29.5111 7.91647 29.8498 8.36014C30.2125 8.83468 30.4772 9.3803 30.7615 9.90725C30.8115 9.99914 30.7528 10.1535 30.731 10.277C30.6991 10.4658 30.599 10.6603 30.6266 10.8377C30.7999 11.9734 30.8282 13.1084 30.5127 14.2155C30.4155 14.5579 30.0899 14.8408 29.8549 15.1401C29.659 15.3971 29.448 15.6426 29.2232 15.8753C28.7424 16.3592 28.2623 16.8459 27.7481 17.2939C27.4652 17.5409 27.334 17.7921 27.3855 18.1647C27.4848 18.8984 27.6335 19.6364 27.6262 20.3709C27.6168 21.3121 27.471 22.2511 27.3905 23.1916C27.3637 23.501 27.2999 23.8226 27.3579 24.1184C27.4217 24.4451 27.5204 24.85 27.7539 25.0438C28.981 26.064 29.5191 27.4323 29.9042 28.9012C30.1588 29.8711 30.3865 30.8532 30.7245 31.7958C30.9892 32.5331 31.4222 33.2101 31.7493 33.9273C32.2352 34.9941 32.6884 36.0753 33.1678 37.145C33.2476 37.3216 33.3549 37.5334 33.5109 37.6224C34.6024 38.242 35.2718 39.2018 35.7678 40.3031C36.2537 41.38 36.5228 42.515 36.7019 43.6823C36.7803 44.1899 37.0356 44.6716 37.2212 45.1612C37.4489 45.7621 37.6564 46.3745 37.9341 46.956C38.0966 47.2949 38.3693 47.5857 38.6108 47.8822C39.0597 48.4342 39.014 49.0847 38.9821 49.7236C38.977 49.8256 38.7558 49.9986 38.6333 50C37.5352 50.0115 36.4358 50 35.3378 49.9699C35.242 49.9699 35.0854 49.8263 35.0687 49.7286C35.0281 49.4946 34.9186 49.16 35.2369 49.0696C35.7548 48.926 35.77 48.389 36.092 48.0961C36.1761 48.0186 36.1101 47.7544 36.0797 47.5821C35.8215 46.134 35.1282 44.9186 34.0983 43.8654C33.5573 43.3028 33.0496 42.7097 32.5775 42.0893C32.348 41.7804 32.1724 41.4355 32.0582 41.0691C31.8406 40.4043 31.3975 39.9162 30.9363 39.4215C30.5613 39.0202 30.219 38.588 29.8672 38.1652C29.5155 37.7423 29.1971 37.318 28.8323 36.921C28.7518 36.8334 28.5299 36.8069 28.3972 36.842C27.7118 37.0265 27.0381 37.2527 26.352 37.4336C26.1953 37.4745 25.9894 37.4271 25.8349 37.3618C25.4599 37.1974 25.098 37.0028 24.7369 36.8076C24.5744 36.72 24.4591 36.7099 24.3402 36.8794C23.6954 37.8026 23.0304 38.7129 22.4023 39.6477C22.2714 39.8661 22.2036 40.1159 22.2065 40.3699C22.2029 41.3671 22.031 42.3226 21.5603 43.2092C21.4414 43.4339 21.2463 43.6192 21.086 43.8231L20.9525 43.8022ZM19.9662 18.8618H19.8806C19.8719 19.0341 19.8516 19.2071 19.856 19.3787C19.8777 20.3544 20.3187 21.1735 20.8554 21.9517C21.3217 22.6294 21.3899 22.6582 22.1847 22.4421C22.2428 22.4263 22.3 22.4069 22.3581 22.3904C22.9948 22.2073 23.6272 22.002 24.272 21.8541C24.5621 21.7873 24.5556 21.6926 24.4722 21.4657C24.338 21.121 24.2329 20.7658 24.1581 20.4039C23.9688 19.3672 24.0791 18.3306 24.214 17.2968C24.2422 17.0814 24.2865 16.8718 24.3097 16.6578C24.3329 16.4575 24.3423 16.2565 24.3576 16.0555C24.2877 16.0989 24.2376 16.1673 24.2176 16.2465C23.7766 17.8661 23.5069 19.495 23.9065 21.1685C23.9304 21.2704 23.868 21.4793 23.7984 21.503C23.1263 21.7356 22.4475 21.9486 21.7619 22.142C21.651 22.1736 21.4508 22.1269 21.3848 22.0436C20.7691 21.269 20.2063 20.4642 20.0793 19.4469C20.0511 19.2495 20.0032 19.0578 19.9662 18.8618ZM29.4937 35.3258C28.3457 32.569 27.3905 29.7698 27.561 26.6692C26.431 28.0447 27.7183 33.7808 29.4937 35.3258ZM20.0793 13.3518C19.9756 14.2047 20.6233 14.7589 21.4428 14.6074C21.7329 14.5543 21.9679 14.5163 22.2471 14.7173C22.675 15.0246 23.2624 14.8494 23.4075 14.4344C23.3732 14.4286 23.3381 14.4286 23.3038 14.4344C22.72 14.6498 22.6322 14.6189 22.2159 14.1652C22.1477 14.0934 21.9904 14.064 21.8772 14.0697C21.7496 14.0762 21.6256 14.148 21.4986 14.186C20.9605 14.3478 20.5551 14.1863 20.2824 13.7014C20.2171 13.5851 20.1475 13.4688 20.0793 13.3518ZM29.7439 3.33257C29.6562 2.78552 29.3748 2.34974 29.6888 1.8831C29.5924 1.90105 29.5394 1.92186 29.5293 1.95489C29.414 2.34831 29.1456 2.33108 28.82 2.24852C28.5792 2.18749 28.3239 2.18175 28.0752 2.15088C28.0701 2.18175 28.0643 2.21262 28.0592 2.24349C28.379 2.33179 28.6945 2.44882 29.0209 2.50266C29.4633 2.57445 29.39 3.04684 29.7439 3.33257Z" fill="#48A14D"></path>
    <path d="M10.8932 41.5803C11.0028 40.9342 11.0448 40.8997 11.5967 40.8731C12.7184 40.8195 13.8404 40.7635 14.9626 40.7051C15.1255 40.6879 15.2875 40.6625 15.4478 40.629C15.4478 40.5967 15.4478 40.5644 15.4478 40.5321C15.0728 40.5005 14.6979 40.4603 14.3222 40.4402C13.478 40.3972 12.6324 40.3684 11.7882 40.3275C11.3371 40.3053 11.3052 40.2787 11.3857 39.835C11.4821 39.3066 11.2987 38.9326 10.8468 38.6533C10.3044 38.3181 9.77275 37.9663 9.18747 37.5894H20.2968C19.9697 37.8249 19.689 38.0769 19.3641 38.2484C18.7056 38.5966 18.6882 39.1559 18.8717 39.7288C19.2894 41.0383 19.742 42.3362 20.2126 43.6285C20.4404 44.2581 20.7392 44.8619 20.9901 45.4836C21.031 45.595 21.0985 45.6949 21.1869 45.7748C21.2753 45.8547 21.382 45.9122 21.4978 45.9423C22.2955 46.1864 23.0846 46.4485 23.8802 46.694C24.1057 46.7658 24.2493 46.8728 24.3117 47.1161C24.5293 47.9776 24.773 48.8262 25.0036 49.6812C25.0168 49.7524 25.025 49.8244 25.0283 49.8966H4.59668C4.60224 49.782 4.61557 49.6678 4.63657 49.5549C4.83964 48.8413 5.03545 48.1255 5.2639 47.4205C5.2943 47.3421 5.34062 47.2707 5.4 47.2107C5.45937 47.1507 5.53054 47.1033 5.60912 47.0716C6.59835 46.7615 7.59387 46.4695 8.59568 46.1958C8.83501 46.1312 9.10335 46.1577 9.35356 46.1491L17.3943 45.8842C17.4531 45.8842 17.5118 45.8734 17.5698 45.8677V45.7514L9.05621 45.4807C9.12075 44.9459 9.21576 44.8683 9.68644 44.8525C12.0645 44.7743 14.4419 44.691 16.8207 44.5539C14.4585 44.2595 12.0747 44.3134 9.6937 44.1755C9.82569 43.6012 9.86775 43.5617 10.3653 43.5402C12.1639 43.4631 13.9622 43.3873 15.7604 43.3126C15.9167 43.3115 16.0716 43.2831 16.218 43.2286C14.278 42.963 12.3191 43.0132 10.3769 42.8768C10.3725 42.3822 10.482 42.2436 10.9136 42.2207C12.364 42.1489 13.8087 42.0828 15.2563 42.0132C15.4311 42.0046 15.6059 41.9823 15.7807 41.9658V41.8265L10.8932 41.5803Z" fill="#48A14D"></path>
    <path d="M14.9681 37.0222C12.4196 37.0222 9.87087 37.0222 7.32188 37.0222C6.83089 37.0222 6.83234 37.0222 6.83307 36.5247C6.83307 35.041 6.83307 33.5573 6.83307 32.0736C6.83307 31.5926 6.83669 31.5905 7.30593 31.5905H22.5614C23.093 31.5905 23.0938 31.5905 23.0938 32.1217C23.0938 33.5576 23.0938 34.9934 23.0938 36.4292C23.0938 37.0215 23.0872 37.0222 22.5041 37.0222H14.9681Z" fill="#48A14D"></path>
    <path d="M0 31.4541C0.269791 31.4541 4.14695 31.472 5.92234 31.4541C6.29512 31.4541 6.39448 31.5668 6.38577 31.925C6.36184 32.9165 6.37852 33.9093 6.37562 34.9015C6.37562 35.5692 6.34879 35.5778 5.66923 35.4572C4.46096 35.2474 3.3294 34.7275 2.3875 33.9495C1.65863 33.353 0.166806 31.701 0 31.4541Z" fill="#48A14D"></path>
    <path d="M12.779 30.0347L14.3578 30.4734C13.9227 30.0326 13.2344 30.0089 12.8094 29.5652C12.8247 29.5272 12.8406 29.4884 12.8566 29.4503C13.0074 29.4852 13.1563 29.5278 13.3026 29.5781C13.7849 29.7684 14.2592 29.9787 14.7451 30.1582C14.8879 30.2151 15.0459 30.2222 15.1933 30.1783C15.7235 29.9629 16.1883 30.0713 16.617 30.4059C16.8701 30.6026 17.1094 30.8173 17.3553 31.0233L17.2907 31.1518C17.1457 31.0944 16.9854 31.0628 16.8657 30.9745C16.5089 30.7096 16.1202 30.5638 15.6814 30.6651C15.5226 30.7017 15.3188 30.8086 15.2579 30.9415C15.1237 31.2286 14.9141 31.1856 14.7175 31.113C14.1446 30.902 13.5796 30.6708 13.0183 30.431C12.8957 30.3786 12.8007 30.2587 12.6963 30.1704L12.779 30.0347Z" fill="#48A14D"></path>
    <path d="M22.4141 27.774C22.2024 28.4532 21.979 29.1294 21.7832 29.8136C21.6898 30.1592 21.6171 30.5099 21.5656 30.8639C21.533 31.0642 21.4445 31.1992 21.2422 31.1331C21.1754 31.1116 21.1051 30.8955 21.1384 30.8051C21.5156 29.7777 21.913 28.7576 22.3046 27.736L22.4141 27.774Z" fill="#48A14D"></path>
    <path d="M19.2486 16.67C19.691 16.8811 19.5271 17.2903 19.6243 17.6406L19.1855 17.7419C19.2073 17.3707 19.2276 17.0283 19.2486 16.67Z" fill="#48A14D"></path>
    <path d="M10.4132 28.367C10.018 28.6657 9.76485 28.428 9.50956 28.3189C9.44429 28.2909 9.42906 28.1481 9.39062 28.0576C9.41746 28.0325 9.44502 28.0081 9.47258 27.9858L10.4132 28.367Z" fill="#48A14D"></path>
    <path d="M9.18065 28.9414L9.73474 29.113L9.6934 29.2565L9.12988 29.0842C9.14729 29.0361 9.16397 28.9888 9.18065 28.9414Z" fill="#48A14D"></path>
    <path d="M19.9663 18.8618C20.0033 19.0578 20.0511 19.2524 20.0765 19.4498C20.2063 20.4671 20.7691 21.2719 21.382 22.0465C21.448 22.1298 21.6481 22.1764 21.7591 22.1448C22.4437 21.951 23.1225 21.738 23.7956 21.5059C23.8681 21.4822 23.9276 21.2733 23.9036 21.1713C23.504 19.4979 23.7738 17.8689 24.2148 16.2493C24.2348 16.1702 24.2849 16.1017 24.3547 16.0583C24.3395 16.2594 24.3301 16.4604 24.3069 16.6607C24.2815 16.8761 24.2394 17.0857 24.2111 17.2996C24.0762 18.3334 23.966 19.3701 24.1553 20.4068C24.2301 20.7687 24.3352 21.1238 24.4693 21.4686C24.5527 21.6954 24.5578 21.7902 24.2692 21.857C23.6244 22.0049 22.992 22.2102 22.3552 22.3932C22.2972 22.4098 22.2399 22.4291 22.1819 22.4449C21.3841 22.6603 21.3189 22.6323 20.8525 21.9546C20.3158 21.1735 19.8749 20.3572 19.8531 19.3816C19.8488 19.21 19.8691 19.037 19.8778 18.8647L19.9663 18.8618Z" fill="white"></path>
    <path d="M29.4945 35.3258C27.7191 33.7808 26.4318 28.0447 27.5618 26.6692C27.3913 29.7698 28.3465 32.569 29.4945 35.3258Z" fill="white"></path>
    <path d="M20.0803 13.3518C20.1484 13.4688 20.2181 13.5851 20.2848 13.7029C20.5575 14.1867 20.9629 14.3483 21.501 14.1875C21.6279 14.1494 21.752 14.0776 21.8796 14.0712C21.9927 14.0654 22.1501 14.092 22.2183 14.1666C22.6339 14.6204 22.7216 14.6498 23.3062 14.4359C23.3405 14.4301 23.3755 14.4301 23.4099 14.4359C23.2648 14.8508 22.6766 15.026 22.2495 14.7187C21.9703 14.5177 21.7324 14.5558 21.4452 14.6089C20.6242 14.7589 19.9766 14.2047 20.0803 13.3518Z" fill="white"></path>
    <path d="M29.7445 3.33258C29.3906 3.04541 29.4639 2.57446 29.0193 2.50195C28.6929 2.4481 28.3774 2.33108 28.0576 2.24278C28.0627 2.21191 28.0685 2.18104 28.0736 2.15017C28.3223 2.18104 28.5776 2.18678 28.8184 2.2478C29.144 2.33037 29.4124 2.3476 29.5277 1.95418C29.5378 1.92187 29.5908 1.90105 29.6872 1.88239C29.3754 2.34975 29.6568 2.78552 29.7445 3.33258Z" fill="white"></path>
  </g>
  <path d="M57.9111 11.6719H61.6318L67.1104 27.3311L72.5889 11.6719H76.3096L68.6045 33H65.6162L57.9111 11.6719ZM55.9043 11.6719H59.6104L60.2842 26.9355V33H55.9043V11.6719ZM74.6104 11.6719H78.3311V33H73.9365V26.9355L74.6104 11.6719ZM96.4951 29.5723V33H85.1426V29.5723H96.4951ZM86.5781 11.6719V33H82.1836V11.6719H86.5781ZM95.0156 20.3584V23.6982H85.1426V20.3584H95.0156ZM96.4805 11.6719V15.1143H85.1426V11.6719H96.4805ZM108.888 11.6719V33H104.508V11.6719H108.888ZM115.45 11.6719V15.1143H98.0479V11.6719H115.45ZM125.045 15.3193L119.244 33H114.571L122.496 11.6719H125.47L125.045 15.3193ZM129.864 33L124.049 15.3193L123.58 11.6719H126.583L134.552 33H129.864ZM129.601 25.0605V28.5029H118.336V25.0605H129.601ZM151.017 11.6719V15.1143H140.411V11.6719H151.017ZM154.151 11.6719V33H149.757V11.6719H154.151ZM139.854 11.6719H144.234L143.692 22.3799C143.614 23.9814 143.463 25.373 143.238 26.5547C143.023 27.7363 142.73 28.7422 142.359 29.5723C141.988 30.3926 141.529 31.0566 140.982 31.5645C140.445 32.0625 139.811 32.4287 139.078 32.6631C138.346 32.8877 137.511 33 136.573 33H135.489V29.5723L136.046 29.5283C136.524 29.4795 136.944 29.3525 137.306 29.1475C137.667 28.9424 137.975 28.6348 138.229 28.2246C138.492 27.8145 138.707 27.292 138.873 26.6572C139.049 26.0127 139.186 25.2266 139.283 24.2988C139.391 23.3711 139.464 22.2871 139.503 21.0469L139.854 11.6719ZM172.462 11.6719V15.1143H161.856V11.6719H172.462ZM175.597 11.6719V33H171.202V11.6719H175.597ZM161.3 11.6719H165.68L165.138 22.3799C165.06 23.9814 164.908 25.373 164.684 26.5547C164.469 27.7363 164.176 28.7422 163.805 29.5723C163.434 30.3926 162.975 31.0566 162.428 31.5645C161.891 32.0625 161.256 32.4287 160.523 32.6631C159.791 32.8877 158.956 33 158.019 33H156.935V29.5723L157.491 29.5283C157.97 29.4795 158.39 29.3525 158.751 29.1475C159.112 28.9424 159.42 28.6348 159.674 28.2246C159.938 27.8145 160.152 27.292 160.318 26.6572C160.494 26.0127 160.631 25.2266 160.729 24.2988C160.836 23.3711 160.909 22.2871 160.948 21.0469L161.3 11.6719ZM183.653 26.0859L192.223 11.6719H196.617V33H192.223V18.5859L183.653 33H179.259V11.6719H183.653V26.0859ZM212.789 25.9248H217.169C217.081 27.3604 216.686 28.6348 215.982 29.748C215.289 30.8613 214.317 31.7305 213.067 32.3555C211.827 32.9805 210.333 33.293 208.585 33.293C207.218 33.293 205.992 33.0586 204.908 32.5898C203.824 32.1113 202.896 31.4277 202.125 30.5391C201.363 29.6504 200.782 28.5762 200.382 27.3164C199.981 26.0566 199.781 24.6455 199.781 23.083V21.6035C199.781 20.041 199.986 18.6299 200.396 17.3701C200.816 16.1006 201.412 15.0215 202.184 14.1328C202.965 13.2441 203.897 12.5605 204.981 12.082C206.065 11.6035 207.276 11.3643 208.614 11.3643C210.392 11.3643 211.891 11.6865 213.111 12.3311C214.342 12.9756 215.294 13.8643 215.968 14.9971C216.651 16.1299 217.062 17.4189 217.198 18.8643H212.804C212.755 18.0049 212.584 17.2773 212.291 16.6816C211.998 16.0762 211.554 15.6221 210.958 15.3193C210.372 15.0068 209.591 14.8506 208.614 14.8506C207.882 14.8506 207.242 14.9873 206.695 15.2607C206.148 15.5342 205.689 15.9492 205.318 16.5059C204.947 17.0625 204.669 17.7656 204.483 18.6152C204.308 19.4551 204.22 20.4414 204.22 21.5742V23.083C204.22 24.1865 204.303 25.1582 204.469 25.998C204.635 26.8281 204.889 27.5312 205.23 28.1074C205.582 28.6738 206.031 29.1035 206.578 29.3965C207.135 29.6797 207.804 29.8213 208.585 29.8213C209.503 29.8213 210.26 29.6748 210.855 29.3818C211.451 29.0889 211.905 28.6543 212.218 28.0781C212.54 27.502 212.73 26.7842 212.789 25.9248ZM229.151 11.6719V33H224.771V11.6719H229.151ZM235.714 11.6719V15.1143H218.312V11.6719H235.714Z" fill="#353535"></path>
  <path d="M60.209 41.7168V42.4639H57.5381V41.7168H60.209ZM57.6699 41.7168V47H56.7666V41.7168H57.6699ZM61.0098 41.7168V47H60.1016V41.7168H61.0098ZM63.6633 42.7324V49.0312H62.7551V41.7168H63.5852L63.6633 42.7324ZM67.2229 44.3145V44.417C67.2229 44.8011 67.1773 45.1576 67.0861 45.4863C66.995 45.8118 66.8615 46.0951 66.6857 46.3359C66.5132 46.5768 66.3 46.764 66.0461 46.8975C65.7922 47.0309 65.5008 47.0977 65.1721 47.0977C64.8368 47.0977 64.5406 47.0423 64.2834 46.9316C64.0262 46.821 63.8081 46.6598 63.6291 46.4482C63.4501 46.2367 63.3068 45.9827 63.1994 45.6865C63.0952 45.3903 63.0236 45.0566 62.9846 44.6855V44.1387C63.0236 43.748 63.0969 43.3981 63.2043 43.0889C63.3117 42.7796 63.4533 42.516 63.6291 42.2979C63.8081 42.0765 64.0246 41.9089 64.2785 41.7949C64.5324 41.6777 64.8254 41.6191 65.1574 41.6191C65.4895 41.6191 65.784 41.6842 66.0412 41.8145C66.2984 41.9414 66.5148 42.1237 66.6906 42.3613C66.8664 42.599 66.9982 42.8838 67.0861 43.2158C67.1773 43.5446 67.2229 43.9108 67.2229 44.3145ZM66.3146 44.417V44.3145C66.3146 44.0508 66.287 43.8034 66.2316 43.5723C66.1763 43.3379 66.09 43.1328 65.9729 42.957C65.8589 42.778 65.7124 42.638 65.5334 42.5371C65.3544 42.4329 65.1411 42.3809 64.8938 42.3809C64.6659 42.3809 64.4673 42.4199 64.298 42.498C64.132 42.5762 63.9904 42.682 63.8732 42.8154C63.7561 42.9456 63.66 43.0954 63.5852 43.2646C63.5135 43.4307 63.4598 43.6032 63.424 43.7822V45.0469C63.4891 45.2747 63.5803 45.4896 63.6975 45.6914C63.8146 45.89 63.9709 46.0511 64.1662 46.1748C64.3615 46.2952 64.6073 46.3555 64.9035 46.3555C65.1477 46.3555 65.3576 46.305 65.5334 46.2041C65.7124 46.0999 65.8589 45.9583 65.9729 45.7793C66.09 45.6003 66.1763 45.3952 66.2316 45.1641C66.287 44.9297 66.3146 44.6807 66.3146 44.417ZM68.4359 44.417V44.3047C68.4359 43.9238 68.4913 43.5706 68.602 43.2451C68.7126 42.9163 68.8721 42.6315 69.0805 42.3906C69.2888 42.1465 69.5411 41.9577 69.8373 41.8242C70.1335 41.6875 70.4656 41.6191 70.8334 41.6191C71.2045 41.6191 71.5382 41.6875 71.8344 41.8242C72.1339 41.9577 72.3878 42.1465 72.5961 42.3906C72.8077 42.6315 72.9688 42.9163 73.0795 43.2451C73.1902 43.5706 73.2455 43.9238 73.2455 44.3047V44.417C73.2455 44.7979 73.1902 45.151 73.0795 45.4766C72.9688 45.8021 72.8077 46.0869 72.5961 46.3311C72.3878 46.5719 72.1355 46.7607 71.8393 46.8975C71.5463 47.0309 71.2143 47.0977 70.8432 47.0977C70.4721 47.0977 70.1384 47.0309 69.8422 46.8975C69.546 46.7607 69.2921 46.5719 69.0805 46.3311C68.8721 46.0869 68.7126 45.8021 68.602 45.4766C68.4913 45.151 68.4359 44.7979 68.4359 44.417ZM69.3393 44.3047V44.417C69.3393 44.6807 69.3702 44.9297 69.432 45.1641C69.4939 45.3952 69.5867 45.6003 69.7104 45.7793C69.8373 45.9583 69.9952 46.0999 70.184 46.2041C70.3728 46.305 70.5925 46.3555 70.8432 46.3555C71.0906 46.3555 71.307 46.305 71.4926 46.2041C71.6814 46.0999 71.8376 45.9583 71.9613 45.7793C72.085 45.6003 72.1778 45.3952 72.2396 45.1641C72.3048 44.9297 72.3373 44.6807 72.3373 44.417V44.3047C72.3373 44.0443 72.3048 43.7985 72.2396 43.5674C72.1778 43.333 72.0834 43.1263 71.9564 42.9473C71.8327 42.765 71.6765 42.6217 71.4877 42.5176C71.3021 42.4134 71.084 42.3613 70.8334 42.3613C70.586 42.3613 70.3679 42.4134 70.1791 42.5176C69.9936 42.6217 69.8373 42.765 69.7104 42.9473C69.5867 43.1263 69.4939 43.333 69.432 43.5674C69.3702 43.7985 69.3393 44.0443 69.3393 44.3047ZM75.6549 45.5693L78.0914 41.7168H78.9996V47H78.0914V43.1475L75.6549 47H74.7564V41.7168H75.6549V45.5693ZM82.7225 44.4756H81.7508V43.9189H82.6492C82.8999 43.9189 83.0984 43.888 83.2449 43.8262C83.3914 43.7611 83.4956 43.6715 83.5574 43.5576C83.6193 43.4437 83.6502 43.3102 83.6502 43.1572C83.6502 43.0205 83.6144 42.8919 83.5428 42.7715C83.4744 42.6478 83.3637 42.5485 83.2107 42.4736C83.0577 42.3955 82.8527 42.3564 82.5955 42.3564C82.3872 42.3564 82.1984 42.3939 82.0291 42.4688C81.8598 42.5404 81.7247 42.6396 81.6238 42.7666C81.5262 42.8903 81.4773 43.0303 81.4773 43.1865H80.574C80.574 42.8643 80.6652 42.5876 80.8475 42.3564C81.033 42.1221 81.2788 41.9414 81.5848 41.8145C81.894 41.6875 82.2309 41.624 82.5955 41.624C82.9015 41.624 83.1749 41.6582 83.4158 41.7266C83.66 41.7917 83.8667 41.8893 84.0359 42.0195C84.2052 42.1465 84.3338 42.306 84.4217 42.498C84.5128 42.6868 84.5584 42.9066 84.5584 43.1572C84.5584 43.3363 84.5161 43.5055 84.4314 43.665C84.3468 43.8245 84.2247 43.9661 84.0652 44.0898C83.9057 44.2103 83.712 44.3047 83.4842 44.373C83.2596 44.4414 83.0057 44.4756 82.7225 44.4756ZM81.7508 44.1338H82.7225C83.0382 44.1338 83.3165 44.1647 83.5574 44.2266C83.7983 44.2852 84.0001 44.373 84.1629 44.4902C84.3257 44.6074 84.4477 44.7523 84.5291 44.9248C84.6137 45.0941 84.6561 45.2894 84.6561 45.5107C84.6561 45.7581 84.6056 45.9811 84.5047 46.1797C84.407 46.375 84.2671 46.541 84.0848 46.6777C83.9025 46.8145 83.6844 46.9186 83.4305 46.9902C83.1798 47.0618 82.9015 47.0977 82.5955 47.0977C82.2537 47.0977 81.9217 47.0391 81.5994 46.9219C81.2771 46.8047 81.0118 46.624 80.8035 46.3799C80.5952 46.1325 80.491 45.8184 80.491 45.4375H81.3943C81.3943 45.597 81.4448 45.7484 81.5457 45.8916C81.6466 46.0348 81.7866 46.1504 81.9656 46.2383C82.1479 46.3262 82.3579 46.3701 82.5955 46.3701C82.8494 46.3701 83.061 46.3311 83.2303 46.2529C83.3995 46.1748 83.5265 46.0706 83.6111 45.9404C83.699 45.8102 83.743 45.6686 83.743 45.5156C83.743 45.3171 83.7039 45.1576 83.6258 45.0371C83.5477 44.9167 83.4272 44.8288 83.2645 44.7734C83.1049 44.7148 82.8999 44.6855 82.6492 44.6855H81.7508V44.1338ZM88.6084 44.6758H86.875L86.8652 43.9531H88.2812C88.5612 43.9531 88.7939 43.9255 88.9795 43.8701C89.1683 43.8148 89.3099 43.7318 89.4043 43.6211C89.4987 43.5104 89.5459 43.3737 89.5459 43.2109C89.5459 43.084 89.5182 42.9733 89.4629 42.8789C89.4108 42.7812 89.3311 42.7015 89.2236 42.6396C89.1162 42.5745 88.9827 42.5273 88.8232 42.498C88.667 42.4655 88.4831 42.4492 88.2715 42.4492H87.1143V47H86.2109V41.7168H88.2715C88.6068 41.7168 88.9079 41.7461 89.1748 41.8047C89.445 41.8633 89.6745 41.9528 89.8633 42.0732C90.0553 42.1904 90.2018 42.3402 90.3027 42.5225C90.4036 42.7048 90.4541 42.9196 90.4541 43.167C90.4541 43.3265 90.4215 43.4779 90.3564 43.6211C90.2913 43.7643 90.1953 43.8913 90.0684 44.002C89.9414 44.1126 89.7852 44.2038 89.5996 44.2754C89.4141 44.3438 89.2008 44.3877 88.96 44.4072L88.6084 44.6758ZM88.6084 47H86.5479L86.9971 46.2676H88.6084C88.859 46.2676 89.0674 46.2367 89.2334 46.1748C89.3994 46.1097 89.5231 46.0186 89.6045 45.9014C89.6891 45.7809 89.7314 45.6377 89.7314 45.4717C89.7314 45.3057 89.6891 45.1641 89.6045 45.0469C89.5231 44.9264 89.3994 44.8353 89.2334 44.7734C89.0674 44.7083 88.859 44.6758 88.6084 44.6758H87.2363L87.2461 43.9531H88.96L89.2871 44.2266C89.5768 44.2493 89.8226 44.321 90.0244 44.4414C90.2262 44.5618 90.3792 44.7148 90.4834 44.9004C90.5876 45.0827 90.6396 45.2812 90.6396 45.4961C90.6396 45.7435 90.5924 45.9616 90.498 46.1504C90.4069 46.3392 90.2734 46.4971 90.0977 46.624C89.9219 46.7477 89.7087 46.8421 89.458 46.9072C89.2074 46.9691 88.9242 47 88.6084 47ZM91.9113 44.417V44.3047C91.9113 43.9238 91.9667 43.5706 92.0773 43.2451C92.188 42.9163 92.3475 42.6315 92.5559 42.3906C92.7642 42.1465 93.0165 41.9577 93.3127 41.8242C93.6089 41.6875 93.9409 41.6191 94.3088 41.6191C94.6799 41.6191 95.0135 41.6875 95.3098 41.8242C95.6092 41.9577 95.8632 42.1465 96.0715 42.3906C96.2831 42.6315 96.4442 42.9163 96.5549 43.2451C96.6656 43.5706 96.7209 43.9238 96.7209 44.3047V44.417C96.7209 44.7979 96.6656 45.151 96.5549 45.4766C96.4442 45.8021 96.2831 46.0869 96.0715 46.3311C95.8632 46.5719 95.6109 46.7607 95.3146 46.8975C95.0217 47.0309 94.6896 47.0977 94.3186 47.0977C93.9475 47.0977 93.6138 47.0309 93.3176 46.8975C93.0214 46.7607 92.7674 46.5719 92.5559 46.3311C92.3475 46.0869 92.188 45.8021 92.0773 45.4766C91.9667 45.151 91.9113 44.7979 91.9113 44.417ZM92.8146 44.3047V44.417C92.8146 44.6807 92.8456 44.9297 92.9074 45.1641C92.9693 45.3952 93.062 45.6003 93.1857 45.7793C93.3127 45.9583 93.4706 46.0999 93.6594 46.2041C93.8482 46.305 94.0679 46.3555 94.3186 46.3555C94.5659 46.3555 94.7824 46.305 94.968 46.2041C95.1568 46.0999 95.313 45.9583 95.4367 45.7793C95.5604 45.6003 95.6532 45.3952 95.715 45.1641C95.7801 44.9297 95.8127 44.6807 95.8127 44.417V44.3047C95.8127 44.0443 95.7801 43.7985 95.715 43.5674C95.6532 43.333 95.5588 43.1263 95.4318 42.9473C95.3081 42.765 95.1519 42.6217 94.9631 42.5176C94.7775 42.4134 94.5594 42.3613 94.3088 42.3613C94.0614 42.3613 93.8433 42.4134 93.6545 42.5176C93.4689 42.6217 93.3127 42.765 93.1857 42.9473C93.062 43.1263 92.9693 43.333 92.9074 43.5674C92.8456 43.7985 92.8146 44.0443 92.8146 44.3047ZM98.7543 41.7168H99.6576L99.5795 43.6943C99.56 44.1956 99.503 44.6286 99.4086 44.9932C99.3142 45.3577 99.1937 45.6686 99.0473 45.9258C98.9008 46.1797 98.7364 46.3929 98.5541 46.5654C98.3751 46.738 98.1895 46.8828 97.9975 47H97.5482L97.5727 46.2627L97.7582 46.2578C97.8656 46.1309 97.9698 46.0007 98.0707 45.8672C98.1716 45.7305 98.2644 45.5693 98.349 45.3838C98.4337 45.195 98.5036 44.9655 98.559 44.6953C98.6176 44.4219 98.655 44.0882 98.6713 43.6943L98.7543 41.7168ZM98.9789 41.7168H102.158V47H101.254V42.5518H98.9789V41.7168ZM97.3432 46.2578H102.836V48.5576H101.933V47H98.2465V48.5576H97.3383L97.3432 46.2578ZM106.252 46.3555C106.466 46.3555 106.665 46.3115 106.847 46.2236C107.03 46.1357 107.179 46.0153 107.296 45.8623C107.414 45.7061 107.48 45.5286 107.497 45.3301H108.356C108.34 45.6426 108.234 45.9339 108.039 46.2041C107.847 46.471 107.594 46.6875 107.282 46.8535C106.969 47.0163 106.626 47.0977 106.252 47.0977C105.854 47.0977 105.508 47.0277 105.212 46.8877C104.919 46.7477 104.674 46.5557 104.479 46.3115C104.287 46.0674 104.142 45.7874 104.045 45.4717C103.95 45.1527 103.903 44.8158 103.903 44.4609V44.2559C103.903 43.901 103.95 43.5658 104.045 43.25C104.142 42.931 104.287 42.6494 104.479 42.4053C104.674 42.1611 104.919 41.9691 105.212 41.8291C105.508 41.6891 105.854 41.6191 106.252 41.6191C106.665 41.6191 107.026 41.7038 107.336 41.873C107.645 42.0391 107.887 42.2669 108.063 42.5566C108.242 42.8431 108.34 43.1686 108.356 43.5332H107.497C107.48 43.3151 107.419 43.1182 107.311 42.9424C107.207 42.7666 107.064 42.6266 106.881 42.5225C106.702 42.415 106.492 42.3613 106.252 42.3613C105.975 42.3613 105.742 42.4167 105.553 42.5273C105.368 42.6348 105.22 42.7812 105.109 42.9668C105.002 43.1491 104.923 43.3525 104.875 43.5771C104.829 43.7985 104.806 44.0247 104.806 44.2559V44.4609C104.806 44.6921 104.829 44.9199 104.875 45.1445C104.92 45.3691 104.997 45.5726 105.104 45.7549C105.215 45.9372 105.363 46.0837 105.548 46.1943C105.737 46.3018 105.972 46.3555 106.252 46.3555ZM111.825 41.7168V47H110.917V41.7168H111.825ZM113.597 41.7168V42.4492H109.179V41.7168H113.597ZM117.267 44.6758H115.533L115.523 43.9531H116.939C117.219 43.9531 117.452 43.9255 117.638 43.8701C117.826 43.8148 117.968 43.7318 118.062 43.6211C118.157 43.5104 118.204 43.3737 118.204 43.2109C118.204 43.084 118.176 42.9733 118.121 42.8789C118.069 42.7812 117.989 42.7015 117.882 42.6396C117.774 42.5745 117.641 42.5273 117.481 42.498C117.325 42.4655 117.141 42.4492 116.93 42.4492H115.772V47H114.869V41.7168H116.93C117.265 41.7168 117.566 41.7461 117.833 41.8047C118.103 41.8633 118.333 41.9528 118.521 42.0732C118.714 42.1904 118.86 42.3402 118.961 42.5225C119.062 42.7048 119.112 42.9196 119.112 43.167C119.112 43.3265 119.08 43.4779 119.015 43.6211C118.95 43.7643 118.854 43.8913 118.727 44.002C118.6 44.1126 118.443 44.2038 118.258 44.2754C118.072 44.3438 117.859 44.3877 117.618 44.4072L117.267 44.6758ZM117.267 47H115.206L115.655 46.2676H117.267C117.517 46.2676 117.726 46.2367 117.892 46.1748C118.058 46.1097 118.181 46.0186 118.263 45.9014C118.347 45.7809 118.39 45.6377 118.39 45.4717C118.39 45.3057 118.347 45.1641 118.263 45.0469C118.181 44.9264 118.058 44.8353 117.892 44.7734C117.726 44.7083 117.517 44.6758 117.267 44.6758H115.895L115.904 43.9531H117.618L117.945 44.2266C118.235 44.2493 118.481 44.321 118.683 44.4414C118.884 44.5618 119.037 44.7148 119.142 44.9004C119.246 45.0827 119.298 45.2812 119.298 45.4961C119.298 45.7435 119.251 45.9616 119.156 46.1504C119.065 46.3392 118.932 46.4971 118.756 46.624C118.58 46.7477 118.367 46.8421 118.116 46.9072C117.866 46.9691 117.582 47 117.267 47ZM120.57 44.417V44.3047C120.57 43.9238 120.625 43.5706 120.736 43.2451C120.846 42.9163 121.006 42.6315 121.214 42.3906C121.422 42.1465 121.675 41.9577 121.971 41.8242C122.267 41.6875 122.599 41.6191 122.967 41.6191C123.338 41.6191 123.672 41.6875 123.968 41.8242C124.267 41.9577 124.521 42.1465 124.73 42.3906C124.941 42.6315 125.102 42.9163 125.213 43.2451C125.324 43.5706 125.379 43.9238 125.379 44.3047V44.417C125.379 44.7979 125.324 45.151 125.213 45.4766C125.102 45.8021 124.941 46.0869 124.73 46.3311C124.521 46.5719 124.269 46.7607 123.973 46.8975C123.68 47.0309 123.348 47.0977 122.977 47.0977C122.606 47.0977 122.272 47.0309 121.976 46.8975C121.68 46.7607 121.426 46.5719 121.214 46.3311C121.006 46.0869 120.846 45.8021 120.736 45.4766C120.625 45.151 120.57 44.7979 120.57 44.417ZM121.473 44.3047V44.417C121.473 44.6807 121.504 44.9297 121.566 45.1641C121.627 45.3952 121.72 45.6003 121.844 45.7793C121.971 45.9583 122.129 46.0999 122.318 46.2041C122.506 46.305 122.726 46.3555 122.977 46.3555C123.224 46.3555 123.441 46.305 123.626 46.2041C123.815 46.0999 123.971 45.9583 124.095 45.7793C124.219 45.6003 124.311 45.3952 124.373 45.1641C124.438 44.9297 124.471 44.6807 124.471 44.417V44.3047C124.471 44.0443 124.438 43.7985 124.373 43.5674C124.311 43.333 124.217 43.1263 124.09 42.9473C123.966 42.765 123.81 42.6217 123.621 42.5176C123.436 42.4134 123.218 42.3613 122.967 42.3613C122.72 42.3613 122.502 42.4134 122.313 42.5176C122.127 42.6217 121.971 42.765 121.844 42.9473C121.72 43.1263 121.627 43.333 121.566 43.5674C121.504 43.7985 121.473 44.0443 121.473 44.3047ZM130.569 45.5693L133.005 41.7168H133.914V47H133.005V43.1475L130.569 47H129.671V41.7168H130.569V45.5693ZM137.637 44.4756H136.665V43.9189H137.563C137.814 43.9189 138.012 43.888 138.159 43.8262C138.305 43.7611 138.41 43.6715 138.471 43.5576C138.533 43.4437 138.564 43.3102 138.564 43.1572C138.564 43.0205 138.528 42.8919 138.457 42.7715C138.388 42.6478 138.278 42.5485 138.125 42.4736C137.972 42.3955 137.767 42.3564 137.51 42.3564C137.301 42.3564 137.112 42.3939 136.943 42.4688C136.774 42.5404 136.639 42.6396 136.538 42.7666C136.44 42.8903 136.391 43.0303 136.391 43.1865H135.488C135.488 42.8643 135.579 42.5876 135.762 42.3564C135.947 42.1221 136.193 41.9414 136.499 41.8145C136.808 41.6875 137.145 41.624 137.51 41.624C137.816 41.624 138.089 41.6582 138.33 41.7266C138.574 41.7917 138.781 41.8893 138.95 42.0195C139.119 42.1465 139.248 42.306 139.336 42.498C139.427 42.6868 139.472 42.9066 139.472 43.1572C139.472 43.3363 139.43 43.5055 139.346 43.665C139.261 43.8245 139.139 43.9661 138.979 44.0898C138.82 44.2103 138.626 44.3047 138.398 44.373C138.174 44.4414 137.92 44.4756 137.637 44.4756ZM136.665 44.1338H137.637C137.952 44.1338 138.231 44.1647 138.471 44.2266C138.712 44.2852 138.914 44.373 139.077 44.4902C139.24 44.6074 139.362 44.7523 139.443 44.9248C139.528 45.0941 139.57 45.2894 139.57 45.5107C139.57 45.7581 139.52 45.9811 139.419 46.1797C139.321 46.375 139.181 46.541 138.999 46.6777C138.817 46.8145 138.598 46.9186 138.345 46.9902C138.094 47.0618 137.816 47.0977 137.51 47.0977C137.168 47.0977 136.836 47.0391 136.513 46.9219C136.191 46.8047 135.926 46.624 135.718 46.3799C135.509 46.1325 135.405 45.8184 135.405 45.4375H136.308C136.308 45.597 136.359 45.7484 136.46 45.8916C136.561 46.0348 136.701 46.1504 136.88 46.2383C137.062 46.3262 137.272 46.3701 137.51 46.3701C137.763 46.3701 137.975 46.3311 138.144 46.2529C138.314 46.1748 138.441 46.0706 138.525 45.9404C138.613 45.8102 138.657 45.6686 138.657 45.5156C138.657 45.3171 138.618 45.1576 138.54 45.0371C138.462 44.9167 138.341 44.8288 138.179 44.7734C138.019 44.7148 137.814 44.6855 137.563 44.6855H136.665V44.1338ZM141.994 41.7168H142.897L142.819 43.6943C142.8 44.1956 142.743 44.6286 142.648 44.9932C142.554 45.3577 142.434 45.6686 142.287 45.9258C142.141 46.1797 141.976 46.3929 141.794 46.5654C141.615 46.738 141.429 46.8828 141.237 47H140.788L140.812 46.2627L140.998 46.2578C141.105 46.1309 141.21 46.0007 141.311 45.8672C141.411 45.7305 141.504 45.5693 141.589 45.3838C141.674 45.195 141.743 44.9655 141.799 44.6953C141.857 44.4219 141.895 44.0882 141.911 43.6943L141.994 41.7168ZM142.219 41.7168H145.397V47H144.494V42.5518H142.219V41.7168ZM140.583 46.2578H146.076V48.5576H145.173V47H141.486V48.5576H140.578L140.583 46.2578ZM149.57 47.0977C149.202 47.0977 148.868 47.0358 148.569 46.9121C148.272 46.7852 148.017 46.6077 147.802 46.3799C147.59 46.152 147.428 45.8818 147.314 45.5693C147.2 45.2568 147.143 44.915 147.143 44.5439V44.3389C147.143 43.9092 147.206 43.5267 147.333 43.1914C147.46 42.8529 147.633 42.5664 147.851 42.332C148.069 42.0977 148.316 41.9202 148.593 41.7998C148.87 41.6794 149.156 41.6191 149.452 41.6191C149.83 41.6191 150.155 41.6842 150.429 41.8145C150.706 41.9447 150.932 42.127 151.108 42.3613C151.283 42.5924 151.414 42.8659 151.498 43.1816C151.583 43.4941 151.625 43.8359 151.625 44.207V44.6123H147.68V43.875H150.722V43.8066C150.709 43.5723 150.66 43.3444 150.575 43.123C150.494 42.9017 150.364 42.7194 150.185 42.5762C150.006 42.4329 149.762 42.3613 149.452 42.3613C149.247 42.3613 149.058 42.4053 148.886 42.4932C148.713 42.5778 148.565 42.7048 148.442 42.874C148.318 43.0433 148.222 43.25 148.154 43.4941C148.085 43.7383 148.051 44.0199 148.051 44.3389V44.5439C148.051 44.7946 148.085 45.0306 148.154 45.252C148.225 45.4701 148.328 45.6621 148.461 45.8281C148.598 45.9941 148.762 46.1243 148.954 46.2188C149.15 46.3132 149.371 46.3604 149.618 46.3604C149.937 46.3604 150.208 46.2952 150.429 46.165C150.65 46.0348 150.844 45.8607 151.01 45.6426L151.557 46.0771C151.443 46.2497 151.298 46.4141 151.122 46.5703C150.946 46.7266 150.73 46.8535 150.473 46.9512C150.219 47.0488 149.918 47.0977 149.57 47.0977ZM156.51 41.7168V42.4639H153.956V41.7168H156.51ZM157.306 41.7168V47H156.403V41.7168H157.306ZM153.737 41.7168H154.645L154.508 44.2656C154.485 44.6595 154.448 45.0078 154.396 45.3105C154.347 45.61 154.279 45.8672 154.191 46.082C154.106 46.2969 153.999 46.4727 153.869 46.6094C153.742 46.7428 153.589 46.8421 153.41 46.9072C153.231 46.9691 153.024 47 152.789 47H152.506V46.2041L152.702 46.1895C152.842 46.1797 152.96 46.1471 153.058 46.0918C153.159 46.0365 153.244 45.9551 153.312 45.8477C153.38 45.737 153.436 45.5954 153.478 45.4229C153.524 45.2503 153.558 45.0452 153.58 44.8076C153.607 44.57 153.626 44.2933 153.639 43.9775L153.737 41.7168ZM160.038 45.5693L162.474 41.7168H163.382V47H162.474V43.1475L160.038 47H159.139V41.7168H160.038V45.5693ZM166.109 45.5693L168.546 41.7168H169.454V47H168.546V43.1475L166.109 47H165.211V41.7168H166.109V45.5693ZM168.053 39.8027H168.785C168.785 40.0566 168.726 40.2829 168.609 40.4814C168.492 40.6768 168.324 40.8298 168.106 40.9404C167.888 41.0511 167.629 41.1064 167.33 41.1064C166.877 41.1064 166.519 40.986 166.256 40.7451C165.995 40.501 165.865 40.1868 165.865 39.8027H166.597C166.597 39.9948 166.653 40.1641 166.763 40.3105C166.874 40.457 167.063 40.5303 167.33 40.5303C167.59 40.5303 167.776 40.457 167.887 40.3105C167.997 40.1641 168.053 39.9948 168.053 39.8027ZM174.961 45.5693L177.398 41.7168H178.306V47H177.398V43.1475L174.961 47H174.063V41.7168H174.961V45.5693ZM182.029 44.4756H181.057V43.9189H181.955C182.206 43.9189 182.405 43.888 182.551 43.8262C182.698 43.7611 182.802 43.6715 182.864 43.5576C182.926 43.4437 182.956 43.3102 182.956 43.1572C182.956 43.0205 182.921 42.8919 182.849 42.7715C182.781 42.6478 182.67 42.5485 182.517 42.4736C182.364 42.3955 182.159 42.3564 181.902 42.3564C181.693 42.3564 181.505 42.3939 181.335 42.4688C181.166 42.5404 181.031 42.6396 180.93 42.7666C180.832 42.8903 180.784 43.0303 180.784 43.1865H179.88C179.88 42.8643 179.971 42.5876 180.154 42.3564C180.339 42.1221 180.585 41.9414 180.891 41.8145C181.2 41.6875 181.537 41.624 181.902 41.624C182.208 41.624 182.481 41.6582 182.722 41.7266C182.966 41.7917 183.173 41.8893 183.342 42.0195C183.511 42.1465 183.64 42.306 183.728 42.498C183.819 42.6868 183.865 42.9066 183.865 43.1572C183.865 43.3363 183.822 43.5055 183.738 43.665C183.653 43.8245 183.531 43.9661 183.371 44.0898C183.212 44.2103 183.018 44.3047 182.79 44.373C182.566 44.4414 182.312 44.4756 182.029 44.4756ZM181.057 44.1338H182.029C182.344 44.1338 182.623 44.1647 182.864 44.2266C183.105 44.2852 183.306 44.373 183.469 44.4902C183.632 44.6074 183.754 44.7523 183.835 44.9248C183.92 45.0941 183.962 45.2894 183.962 45.5107C183.962 45.7581 183.912 45.9811 183.811 46.1797C183.713 46.375 183.573 46.541 183.391 46.6777C183.209 46.8145 182.991 46.9186 182.737 46.9902C182.486 47.0618 182.208 47.0977 181.902 47.0977C181.56 47.0977 181.228 47.0391 180.906 46.9219C180.583 46.8047 180.318 46.624 180.11 46.3799C179.901 46.1325 179.797 45.8184 179.797 45.4375H180.701C180.701 45.597 180.751 45.7484 180.852 45.8916C180.953 46.0348 181.093 46.1504 181.272 46.2383C181.454 46.3262 181.664 46.3701 181.902 46.3701C182.156 46.3701 182.367 46.3311 182.537 46.2529C182.706 46.1748 182.833 46.0706 182.917 45.9404C183.005 45.8102 183.049 45.6686 183.049 45.5156C183.049 45.3171 183.01 45.1576 182.932 45.0371C182.854 44.9167 182.733 44.8288 182.571 44.7734C182.411 44.7148 182.206 44.6855 181.955 44.6855H181.057V44.1338ZM191.252 45.7988L193.049 41.7168H193.918L191.564 47H190.939L188.596 41.7168H189.465L191.252 45.7988ZM189.201 41.7168V47H188.298V41.7168H189.201ZM193.273 47V41.7168H194.181V47H193.273ZM198.129 47.0977C197.761 47.0977 197.427 47.0358 197.128 46.9121C196.832 46.7852 196.576 46.6077 196.361 46.3799C196.15 46.152 195.987 45.8818 195.873 45.5693C195.759 45.2568 195.702 44.915 195.702 44.5439V44.3389C195.702 43.9092 195.766 43.5267 195.893 43.1914C196.02 42.8529 196.192 42.5664 196.41 42.332C196.628 42.0977 196.876 41.9202 197.152 41.7998C197.429 41.6794 197.715 41.6191 198.012 41.6191C198.389 41.6191 198.715 41.6842 198.988 41.8145C199.265 41.9447 199.491 42.127 199.667 42.3613C199.843 42.5924 199.973 42.8659 200.058 43.1816C200.142 43.4941 200.185 43.8359 200.185 44.207V44.6123H196.239V43.875H199.281V43.8066C199.268 43.5723 199.219 43.3444 199.135 43.123C199.053 42.9017 198.923 42.7194 198.744 42.5762C198.565 42.4329 198.321 42.3613 198.012 42.3613C197.807 42.3613 197.618 42.4053 197.445 42.4932C197.273 42.5778 197.125 42.7048 197.001 42.874C196.877 43.0433 196.781 43.25 196.713 43.4941C196.645 43.7383 196.61 44.0199 196.61 44.3389V44.5439C196.61 44.7946 196.645 45.0306 196.713 45.252C196.785 45.4701 196.887 45.6621 197.021 45.8281C197.157 45.9941 197.322 46.1243 197.514 46.2188C197.709 46.3132 197.93 46.3604 198.178 46.3604C198.497 46.3604 198.767 46.2952 198.988 46.165C199.21 46.0348 199.403 45.8607 199.569 45.6426L200.116 46.0771C200.002 46.2497 199.857 46.4141 199.682 46.5703C199.506 46.7266 199.289 46.8535 199.032 46.9512C198.778 47.0488 198.477 47.0977 198.129 47.0977ZM203.634 41.7168V47H202.726V41.7168H203.634ZM205.406 41.7168V42.4492H200.988V41.7168H205.406ZM209.632 46.0967V43.377C209.632 43.1686 209.59 42.988 209.505 42.835C209.424 42.6787 209.3 42.5583 209.134 42.4736C208.968 42.389 208.763 42.3467 208.519 42.3467C208.291 42.3467 208.091 42.3857 207.918 42.4639C207.749 42.542 207.616 42.6445 207.518 42.7715C207.424 42.8984 207.376 43.0352 207.376 43.1816H206.473C206.473 42.9928 206.522 42.8057 206.62 42.6201C206.717 42.4346 206.857 42.2669 207.039 42.1172C207.225 41.9642 207.446 41.8438 207.704 41.7559C207.964 41.6647 208.254 41.6191 208.573 41.6191C208.957 41.6191 209.295 41.6842 209.588 41.8145C209.885 41.9447 210.116 42.1416 210.282 42.4053C210.451 42.6657 210.536 42.9928 210.536 43.3867V45.8477C210.536 46.0234 210.55 46.2106 210.579 46.4092C210.612 46.6077 210.659 46.7786 210.721 46.9219V47H209.779C209.733 46.8958 209.697 46.7575 209.671 46.585C209.645 46.4092 209.632 46.2464 209.632 46.0967ZM209.788 43.7969L209.798 44.4316H208.885C208.628 44.4316 208.399 44.4528 208.197 44.4951C207.995 44.5342 207.826 44.5944 207.689 44.6758C207.552 44.7572 207.448 44.8597 207.376 44.9834C207.305 45.1038 207.269 45.2454 207.269 45.4082C207.269 45.5742 207.306 45.7256 207.381 45.8623C207.456 45.999 207.568 46.1081 207.718 46.1895C207.871 46.2676 208.058 46.3066 208.28 46.3066C208.556 46.3066 208.801 46.248 209.012 46.1309C209.224 46.0137 209.391 45.8704 209.515 45.7012C209.642 45.5319 209.71 45.3675 209.72 45.208L210.106 45.6426C210.083 45.7793 210.021 45.9307 209.92 46.0967C209.819 46.2627 209.684 46.4222 209.515 46.5752C209.349 46.7249 209.15 46.8503 208.919 46.9512C208.691 47.0488 208.434 47.0977 208.148 47.0977C207.79 47.0977 207.476 47.0277 207.205 46.8877C206.939 46.7477 206.73 46.5605 206.58 46.3262C206.434 46.0885 206.361 45.8232 206.361 45.5303C206.361 45.2471 206.416 44.998 206.527 44.7832C206.637 44.5651 206.797 44.3844 207.005 44.2412C207.214 44.0947 207.464 43.984 207.757 43.9092C208.05 43.8343 208.377 43.7969 208.739 43.7969H209.788ZM215.787 41.7168V42.4639H213.233V41.7168H215.787ZM216.583 41.7168V47H215.679V41.7168H216.583ZM213.013 41.7168H213.921L213.785 44.2656C213.762 44.6595 213.725 45.0078 213.672 45.3105C213.624 45.61 213.555 45.8672 213.467 46.082C213.383 46.2969 213.275 46.4727 213.145 46.6094C213.018 46.7428 212.865 46.8421 212.686 46.9072C212.507 46.9691 212.3 47 212.066 47H211.783V46.2041L211.978 46.1895C212.118 46.1797 212.237 46.1471 212.335 46.0918C212.435 46.0365 212.52 45.9551 212.588 45.8477C212.657 45.737 212.712 45.5954 212.754 45.4229C212.8 45.2503 212.834 45.0452 212.857 44.8076C212.883 44.57 212.903 44.2933 212.916 43.9775L213.013 41.7168ZM221.868 41.7168V42.4639H219.314V41.7168H221.868ZM222.664 41.7168V47H221.761V41.7168H222.664ZM219.095 41.7168H220.003L219.866 44.2656C219.843 44.6595 219.806 45.0078 219.754 45.3105C219.705 45.61 219.637 45.8672 219.549 46.082C219.464 46.2969 219.357 46.4727 219.226 46.6094C219.099 46.7428 218.946 46.8421 218.767 46.9072C218.588 46.9691 218.382 47 218.147 47H217.864V46.2041L218.059 46.1895C218.199 46.1797 218.318 46.1471 218.416 46.0918C218.517 46.0365 218.601 45.9551 218.67 45.8477C218.738 45.737 218.793 45.5954 218.836 45.4229C218.881 45.2503 218.915 45.0452 218.938 44.8076C218.964 44.57 218.984 44.2933 218.997 43.9775L219.095 41.7168ZM227.534 46.0967V43.377C227.534 43.1686 227.492 42.988 227.407 42.835C227.326 42.6787 227.202 42.5583 227.036 42.4736C226.87 42.389 226.665 42.3467 226.421 42.3467C226.193 42.3467 225.993 42.3857 225.82 42.4639C225.651 42.542 225.518 42.6445 225.42 42.7715C225.326 42.8984 225.278 43.0352 225.278 43.1816H224.375C224.375 42.9928 224.424 42.8057 224.521 42.6201C224.619 42.4346 224.759 42.2669 224.941 42.1172C225.127 41.9642 225.348 41.8438 225.605 41.7559C225.866 41.6647 226.156 41.6191 226.475 41.6191C226.859 41.6191 227.197 41.6842 227.49 41.8145C227.786 41.9447 228.018 42.1416 228.184 42.4053C228.353 42.6657 228.438 42.9928 228.438 43.3867V45.8477C228.438 46.0234 228.452 46.2106 228.481 46.4092C228.514 46.6077 228.561 46.7786 228.623 46.9219V47H227.681C227.635 46.8958 227.599 46.7575 227.573 46.585C227.547 46.4092 227.534 46.2464 227.534 46.0967ZM227.69 43.7969L227.7 44.4316H226.787C226.53 44.4316 226.3 44.4528 226.099 44.4951C225.897 44.5342 225.728 44.5944 225.591 44.6758C225.454 44.7572 225.35 44.8597 225.278 44.9834C225.207 45.1038 225.171 45.2454 225.171 45.4082C225.171 45.5742 225.208 45.7256 225.283 45.8623C225.358 45.999 225.47 46.1081 225.62 46.1895C225.773 46.2676 225.96 46.3066 226.182 46.3066C226.458 46.3066 226.702 46.248 226.914 46.1309C227.126 46.0137 227.293 45.8704 227.417 45.7012C227.544 45.5319 227.612 45.3675 227.622 45.208L228.008 45.6426C227.985 45.7793 227.923 45.9307 227.822 46.0967C227.721 46.2627 227.586 46.4222 227.417 46.5752C227.251 46.7249 227.052 46.8503 226.821 46.9512C226.593 47.0488 226.336 47.0977 226.05 47.0977C225.692 47.0977 225.378 47.0277 225.107 46.8877C224.84 46.7477 224.632 46.5605 224.482 46.3262C224.336 46.0885 224.263 45.8232 224.263 45.5303C224.263 45.2471 224.318 44.998 224.429 44.7832C224.539 44.5651 224.699 44.3844 224.907 44.2412C225.116 44.0947 225.366 43.984 225.659 43.9092C225.952 43.8343 226.279 43.7969 226.641 43.7969H227.69Z" fill="#353535"></path>
  <defs>
    <clipPath id="clip0_6007_2669">
      <rect width="39" height="50" fill="white"></rect>
    </clipPath>
  </defs>
</svg>
